<svg xmlns="http://www.w3.org/2000/svg" version="1.1" xmlns:xlink="http://www.w3.org/1999/xlink" xmlns:svgjs="http://svgjs.dev/svgjs" width="1500" height="1500" viewBox="0 0 1500 1500"><rect width="1500" height="1500" fill="#ffffff"></rect><g transform="matrix(0.6666666666666666,0,0,0.6666666666666666,249.39393939393938,438.5856950067477)"><svg viewBox="0 0 396 247" data-background-color="#8dbdff" preserveAspectRatio="xMidYMid meet" height="935" width="1500" xmlns="http://www.w3.org/2000/svg" xmlns:xlink="http://www.w3.org/1999/xlink"><g id="tight-bounds" transform="matrix(1,0,0,1,0.2400000000000091,-0.09999999999999432)"><svg viewBox="0 0 395.52 247.2" height="247.2" width="395.52"><g><svg></svg></g><g><svg viewBox="0 0 395.52 247.2" height="247.2" width="395.52"><g transform="matrix(1,0,0,1,39.55199999999999,90.85205034965034)"><svg viewBox="0 0 316.416 65.49589930069929" height="65.49589930069929" width="316.416"><g><svg viewBox="0 0 316.416 65.49589930069929" height="65.49589930069929" width="316.416"><g><svg viewBox="0 0 316.416 65.49589930069929" height="65.49589930069929" width="316.416"><g><svg viewBox="0 0 316.416 65.49589930069929" height="65.49589930069929" width="316.416"><g id="textblocktransform"><svg viewBox="0 0 316.416 65.49589930069929" height="65.49589930069929" width="316.416" id="textblock"><g><svg viewBox="0 0 316.416 65.49589930069929" height="65.49589930069929" width="316.416"><g transform="matrix(1,0,0,1,0,0)"><svg width="316.416" viewBox="2.65 -36.5 178.73999999999998 37" height="65.49589930069929" data-palette-color="#374151"><path d="M18.75-2.75L18.75-2.75Q23-2.75 25.13-4.88 27.25-7 27.25-11.15L27.25-11.15 27.25-14.65 23.05-15.7 23.05-17.95 36.45-17.95 36.45-15.7 32.25-14.65 32.25 0 29.65 0 28.4-3.95Q26.25-1.55 23.93-0.53 21.6 0.5 18.45 0.5L18.45 0.5Q11.6 0.5 7.5-3.7L7.5-3.7Q5.2-6.05 3.93-9.65 2.65-13.25 2.65-17.6L2.65-17.6Q2.65-22.05 3.98-25.88 5.3-29.7 7.7-32.2L7.7-32.2Q9.75-34.35 12.48-35.43 15.2-36.5 18.65-36.5L18.65-36.5Q21.65-36.5 23.8-35.58 25.95-34.65 27.8-32.55L27.8-32.55 28.9-36 31.65-36 31.65-24.95 28.6-24.95Q27.9-29.35 25.33-31.58 22.75-33.8 18.45-33.8L18.45-33.8Q15.95-33.8 14.23-32.98 12.5-32.15 11.25-30.4L11.25-30.4Q9.85-28.3 9.03-25.1 8.2-21.9 8.2-18.3L8.2-18.3Q8.2-14.6 9.08-11.45 9.95-8.3 11.55-6.1L11.55-6.1Q12.85-4.35 14.55-3.55 16.25-2.75 18.75-2.75ZM59.9-2.15L64-3.2 61.05-12.1 47.65-12.1 44.6-3.2 48.75-2.15 48.75 0 37.05 0 37.05-2.15 41.15-3.2 53.15-36.5 57.8-36.5 69.65-3.2 73.65-2.15 73.65 0 59.9 0 59.9-2.15ZM54.7-32.05L54.5-32.05 48.65-15 60.1-15 54.7-32.05ZM75.85-2.15L80.05-3.2 80.05-32.8 75.85-33.85 75.85-36 85.4-36 104.1-8.35 104.1-32.8 99.9-33.85 99.9-36 111.55-36 111.55-33.85 107.34-32.8 107.34 0 103.8 0 83.3-29.95 83.3-3.2 87.5-2.15 87.5 0 75.85 0 75.85-2.15ZM121.04-3L139.04-3 140.64-11.15 143.49-11.15 143.49 0 115.34 0 115.34-3.05 136.64-33 121.09-33 119.49-25.4 116.89-25.4 116.89-36 142.34-36 142.34-32.95 121.04-3ZM181.39-18.4L181.39-18.4Q181.39-14.05 180.06-10.23 178.74-6.4 176.39-3.85L176.39-3.85Q174.34-1.65 171.47-0.58 168.59 0.5 164.84 0.5L164.84 0.5Q161.04 0.5 158.14-0.55 155.24-1.6 153.29-3.7L153.29-3.7Q150.99-6.1 149.74-9.73 148.49-13.35 148.49-17.6L148.49-17.6Q148.49-21.95 149.81-25.78 151.14-29.6 153.49-32.15L153.49-32.15Q155.59-34.4 158.37-35.45 161.14-36.5 164.94-36.5L164.94-36.5Q168.74-36.5 171.62-35.48 174.49-34.45 176.54-32.3L176.54-32.3Q178.89-29.9 180.14-26.25 181.39-22.6 181.39-18.4ZM154.24-18.6L154.24-18.6Q154.24-14.45 154.94-11.23 155.64-8 156.94-5.95L156.94-5.95Q158.24-4.1 160.22-3.18 162.19-2.25 165.09-2.25L165.09-2.25Q170.39-2.25 172.89-5.55L172.89-5.55Q174.24-7.4 174.94-10.48 175.64-13.55 175.64-17.7L175.64-17.7Q175.64-21.85 174.94-25 174.24-28.15 172.89-30.1L172.89-30.1Q171.59-32 169.56-32.9 167.54-33.8 164.79-33.8L164.79-33.8Q162.14-33.8 160.22-32.98 158.29-32.15 156.99-30.5L156.99-30.5Q154.24-26.85 154.24-18.6Z" opacity="1" transform="matrix(1,0,0,1,0,0)" fill="#000000" class="wordmark-text-0" data-fill-palette-color="primary" id="text-0"></path></svg></g></svg></g></svg></g></svg></g></svg></g></svg></g></svg></g><g><path d="M0 247.2v-247.2h395.52v247.2zM389.614 241.294v-235.388h-383.708v235.388z" fill="#000000" fill-rule="nonzero" stroke="none" stroke-width="1" stroke-linecap="butt" stroke-linejoin="miter" stroke-miterlimit="10" stroke-dasharray="" stroke-dashoffset="0" font-family="none" font-weight="none" font-size="none" text-anchor="none" style="mix-blend-mode: normal" data-fill-palette-color="tertiary"></path></g></svg></g><defs></defs></svg><rect width="395.52" height="247.2" fill="none" stroke="none" visibility="hidden"></rect></g></svg></g></svg>